<?xml version="1.0" standalone="no"?>
<!DOCTYPE svg PUBLIC "-//W3C//DTD SVG 20010904//EN"
 "http://www.w3.org/TR/2001/REC-SVG-20010904/DTD/svg10.dtd">
<svg version="1.0" xmlns="http://www.w3.org/2000/svg"
 width="264.000000pt" height="366.000000pt" viewBox="0 0 264.000000 366.000000"
 preserveAspectRatio="xMidYMid meet">
<metadata>
Created by potrace 1.16, written by Peter Selinger 2001-2019
</metadata>
<g transform="translate(0.000000,366.000000) scale(0.100000,-0.100000)"
fill="#000000" stroke="none">
<path d="M840 3478 c-79 -11 -129 -33 -230 -99 -86 -57 -131 -109 -184 -215
-50 -100 -66 -172 -68 -294 0 -89 3 -117 26 -184 40 -119 98 -210 198 -309 79
-79 104 -108 79 -93 -4 3 -29 -20 -54 -52 -24 -31 -82 -97 -128 -147 -84 -91
-155 -191 -165 -231 -9 -37 34 -103 137 -209 54 -56 99 -106 99 -112 0 -6 -7
-16 -16 -24 -21 -17 -54 -84 -54 -109 0 -82 101 -130 157 -74 14 14 29 22 33
17 5 -4 14 -53 20 -108 25 -209 -15 -488 -97 -673 -13 -30 -22 -60 -19 -67 5
-13 12 -15 156 -39 165 -27 206 -21 236 35 17 34 13 59 -11 59 -9 0 -13 4 -10
10 3 5 -7 12 -22 16 -15 4 -53 13 -83 20 -30 8 -63 14 -75 14 -43 0 -44 10
-17 130 23 103 25 139 27 353 l3 238 175 4 176 4 7 -44 c3 -24 4 -153 2 -287
-4 -216 -7 -250 -27 -311 -28 -85 -19 -108 59 -154 52 -32 58 -33 160 -33 108
0 168 10 181 32 23 37 -68 89 -191 108 -131 20 -123 17 -116 53 18 90 24 233
17 432 -5 137 -4 231 2 249 21 62 -15 583 -48 700 -13 48 -12 71 4 61 4 -2 37
-7 72 -10 35 -3 82 -8 104 -11 49 -7 90 -9 318 -19 l178 -8 16 -39 c22 -56 65
-82 133 -83 89 0 150 59 150 145 l0 30 88 0 c95 1 115 9 125 52 7 25 4 28 -30
37 -21 6 -77 11 -126 11 -68 0 -95 4 -124 20 -42 22 -103 26 -136 9 -32 -17
-77 -61 -77 -76 0 -29 -42 -36 -190 -29 -171 7 -355 24 -460 40 l-75 12 81 42
c197 100 331 258 364 429 8 38 11 107 8 175 -8 182 -63 300 -204 445 -64 66
-96 90 -155 117 -117 54 -237 67 -399 44z m261 -82 c94 -17 167 -54 237 -120
136 -127 200 -308 181 -511 -6 -70 -14 -96 -50 -166 -55 -106 -139 -192 -231
-238 -125 -62 -358 -64 -485 -5 -119 56 -250 224 -288 369 -47 182 11 424 130
540 57 56 176 121 245 134 68 13 176 12 261 -3z m-119 -1186 c69 0 79 -2 92
-23 33 -50 91 -490 85 -646 -5 -128 1 -124 -206 -124 -110 0 -182 4 -207 13
l-39 13 7 273 c5 232 26 489 41 514 2 3 37 1 77 -6 40 -7 108 -13 150 -14z
m-348 -349 c-4 -138 -10 -251 -14 -251 -13 0 -210 209 -210 223 0 7 15 34 33
59 36 51 190 226 195 222 2 -1 0 -115 -4 -253z m-7 -473 c-3 -8 -6 -5 -6 6 -1
11 2 17 5 13 3 -3 4 -12 1 -19z m111 -55 c-10 -2 -26 -2 -35 0 -10 3 -2 5 17
5 19 0 27 -2 18 -5z"/>
<path d="M1288 3039 c-31 -17 -41 -81 -22 -145 20 -69 46 -99 73 -84 26 13 44
72 36 113 -20 91 -53 135 -87 116z"/>
<path d="M986 2995 c-12 -12 -16 -36 -16 -96 0 -71 3 -82 25 -104 30 -31 40
-31 72 1 24 24 25 31 20 91 -7 97 -58 151 -101 108z"/>
<path d="M916 2614 c-22 -21 -20 -29 10 -53 72 -57 299 -90 340 -49 29 29 3
44 -83 51 -81 7 -152 24 -215 51 -33 14 -38 14 -52 0z"/>
</g>
</svg>
